<svg width="179" height="28" viewBox="0 0 179 28" fill="none" xmlns="http://www.w3.org/2000/svg">
<g clip-path="url(#clip0_975_1209)">
<path d="M31.8056 11.727C31.8346 14.3384 31.2881 16.8337 30.2146 19.2178C28.6816 22.6126 25.0063 25.3885 21.6501 22.4337C18.913 20.0254 18.4052 15.1363 14.3044 14.4206C8.87845 13.7629 8.74788 20.0544 5.20315 20.7653C1.2522 21.5681 -0.0583338 14.9235 -0.000302664 11.9059C0.0577284 8.88828 0.860492 4.64717 4.294 4.64717C8.24495 4.64717 8.51092 10.6292 13.5258 10.3052C18.4923 9.96669 18.5793 3.74285 21.8242 1.07826C24.6242 -1.22364 27.9175 0.464096 29.5665 3.23508C31.0947 5.79812 31.7669 8.80606 31.8007 11.727H31.8056Z" fill="#072723"/>
<path d="M46.7054 21.8777V1.68286H48.6204V10.4165H60.4297V1.68286H62.3157V21.8777H60.4297V12.0414H48.6204V21.8777H46.7054Z" fill="#072723"/>
<path d="M67.316 27.9999L69.9274 21.5004L64.2694 7.92114H66.2425L69.9565 17.1191C70.1692 17.68 70.4691 18.4248 70.8559 19.3533C70.914 19.2179 70.972 19.0679 71.03 18.9035C71.0881 18.7391 71.1461 18.5892 71.2041 18.4538C71.3202 18.2023 71.4217 17.9654 71.5088 17.7429C71.5958 17.5205 71.6781 17.3028 71.7554 17.0901L75.2373 7.92114H77.1233L69.2021 27.9999H67.316Z" fill="#072723"/>
<path d="M79.0383 28.0001V7.92135H80.8372V10.4747C81.3015 9.60426 81.9737 8.89338 82.8538 8.34208C83.734 7.79078 84.7156 7.51514 85.7989 7.51514C87.0949 7.51514 88.2217 7.82947 89.1792 8.45814C90.1367 9.08681 90.8718 9.95728 91.3844 11.0695C91.897 12.1818 92.1533 13.444 92.1533 14.8561C92.1533 16.2682 91.8873 17.5642 91.3554 18.6861C90.8234 19.8081 90.0738 20.6882 89.1067 21.3265C88.1395 21.9649 87.0369 22.284 85.7989 22.284C84.7543 22.284 83.792 22.0326 82.9118 21.5296C82.0317 21.0267 81.3402 20.2916 80.8372 19.3245V28.0001H79.0383ZM85.5378 20.8333C86.4856 20.8333 87.3222 20.5818 88.0476 20.0789C88.773 19.5759 89.3291 18.8747 89.716 17.9752C90.1029 17.0758 90.2963 16.036 90.2963 14.8561C90.2963 13.6761 90.098 12.6992 89.7015 11.8094C89.3049 10.9196 88.7488 10.2281 88.0331 9.73483C87.3174 9.24156 86.4856 8.99493 85.5378 8.99493C84.5899 8.99493 83.7823 9.23673 83.0569 9.72032C82.3315 10.2039 81.7657 10.8906 81.3595 11.7804C80.9533 12.6702 80.7502 13.6954 80.7502 14.8561C80.7502 16.0167 80.9533 17.0758 81.3595 17.9752C81.7657 18.8747 82.3267 19.5759 83.0424 20.0789C83.7581 20.5818 84.5899 20.8333 85.5378 20.8333Z" fill="#072723"/>
<path d="M100.742 22.284C99.4267 22.284 98.2709 21.9939 97.2747 21.4136C96.2785 20.8333 95.5048 19.9821 94.9535 18.8602C94.4022 17.7383 94.1265 16.3939 94.1265 14.8271C94.1265 13.4343 94.4118 12.1818 94.9825 11.0695C95.5531 9.95728 96.3317 9.08681 97.3182 8.45814C98.3048 7.82947 99.4074 7.51514 100.626 7.51514C101.941 7.51514 103.063 7.81496 103.992 8.41462C104.92 9.01427 105.626 9.86056 106.11 10.9535C106.594 12.0464 106.835 13.3182 106.835 14.769V15.1462H95.9255C95.9255 16.3455 96.1286 17.3708 96.5348 18.2219C96.941 19.073 97.5117 19.721 98.2467 20.1659C98.9818 20.6108 99.8232 20.8333 100.771 20.8333C101.893 20.8333 102.826 20.5673 103.571 20.0353C104.316 19.5034 104.775 18.7055 104.949 17.6416H106.748C106.613 18.5314 106.299 19.3245 105.805 20.0208C105.312 20.7172 104.635 21.2685 103.774 21.6747C102.913 22.0809 101.903 22.284 100.742 22.284ZM104.92 13.7825C104.901 12.3317 104.514 11.1711 103.76 10.3006C103.005 9.43016 101.961 8.99493 100.626 8.99493C99.2913 8.99493 98.2612 9.44467 97.4198 10.3442C96.5783 11.2436 96.0996 12.3897 95.9835 13.7825H104.92Z" fill="#072723"/>
<path d="M109.616 21.8778V7.92135H111.415V10.7068C111.802 9.77835 112.406 9.01427 113.228 8.41462C114.05 7.81496 115.013 7.51514 116.115 7.51514C116.386 7.51514 116.647 7.53448 116.899 7.57317V9.3141C116.57 9.27541 116.28 9.25607 116.028 9.25607C115.1 9.25607 114.287 9.46401 113.591 9.8799C112.895 10.2958 112.358 10.8906 111.981 11.6644C111.603 12.4381 111.415 13.3376 111.415 14.3628V21.8778H109.616Z" fill="#072723"/>
<path d="M121.367 21.491L121.285 21.8827H115.593L115.675 21.491C117.247 21.3217 117.89 20.872 118.142 19.6969L121.338 4.63295C121.677 3.09029 121.198 2.83883 119.573 3.17251L119.655 2.7808L123.132 1.60083H123.524L119.679 19.692C119.428 20.872 119.849 21.3169 121.362 21.4861L121.367 21.491Z" fill="#072723"/>
<path d="M127.78 21.4909L127.697 21.8826H122.006L122.088 21.4909C123.659 21.3216 124.303 20.8719 124.554 19.6967L126.488 10.523C126.827 8.9513 126.377 8.72885 124.723 9.06253L124.806 8.67082L128.283 7.49085H128.674L126.092 19.6919C125.84 20.8719 126.261 21.3168 127.775 21.486L127.78 21.4909ZM128.732 2.41797C129.492 2.41797 129.995 3.00795 129.912 3.76236C129.801 4.5216 129.129 5.08256 128.399 5.08256C127.615 5.08256 127.078 4.5216 127.194 3.76236C127.277 3.00312 127.954 2.41797 128.737 2.41797H128.732Z" fill="#072723"/>
<path d="M137.582 25.9255L139.144 18.7103C138.162 20.8429 136.117 22.2985 133.955 22.2985C130.478 22.2985 128.848 19.0149 129.888 14.1065C130.618 10.5424 133.815 7.48608 137.601 7.48608C139.342 7.48608 140.769 8.2695 141.359 9.42045L142.679 7.48608H143.071L139.125 25.9158C138.844 27.178 139.855 27.4294 140.866 27.5987L140.783 27.9904H134.25L134.332 27.5987C136.213 27.4294 137.306 27.178 137.587 25.9158L137.582 25.9255ZM134.884 21.2636C136.678 21.2636 138.472 19.721 139.313 17.8688L140.493 12.3414C140.803 10.349 139.85 8.27434 137.127 8.27434C134.405 8.27434 132.277 10.6294 131.576 14.0774C130.676 18.3137 131.938 21.2588 134.884 21.2588V21.2636Z" fill="#072723"/>
<path d="M162.531 21.4909L162.448 21.8826H156.756L156.839 21.4909C158.41 21.3216 159.054 20.8719 159.305 19.6967L161.239 10.523C161.578 8.9513 161.128 8.72885 159.474 9.06253L159.556 8.67082L163.034 7.49085H163.425L160.843 19.6919C160.591 20.8719 161.012 21.3168 162.526 21.486L162.531 21.4909ZM163.483 2.41797C164.242 2.41797 164.745 3.00795 164.663 3.76236C164.552 4.5216 163.88 5.08256 163.15 5.08256C162.366 5.08256 161.829 4.5216 161.945 3.76236C162.028 3.00312 162.705 2.41797 163.488 2.41797H163.483Z" fill="#072723"/>
<path d="M154.45 19.6628L155.741 13.5018L157.013 7.49561H156.621L153.144 8.67557L153.062 9.06728C154.687 8.72877 155.165 8.95605 154.827 10.5277L153.173 18.3523C151.35 20.0642 150.059 21.0749 148.487 21.0749C146.553 21.0749 145.542 19.7547 146.021 17.4866L148.153 7.50044H147.762L144.255 8.68041L144.173 9.07212C145.827 8.7336 146.277 8.96089 145.967 10.5326L144.454 17.7139C143.864 20.3785 145.213 22.3129 147.708 22.3129C149.362 22.3129 150.818 21.3892 153.057 18.9858L152.95 19.4935V19.5177H152.946L152.443 21.897H156.055L156.137 21.4714C154.624 21.3022 154.203 20.8524 154.454 19.6773L154.45 19.6628Z" fill="#072723"/>
<path d="M177.696 6.96871L178.828 1.60083H178.436L174.959 2.7808L174.877 3.17251C176.502 2.83399 176.98 3.09029 176.642 4.63295L175.66 9.2029C175.041 8.16318 173.697 7.49099 172.125 7.49099C168.309 7.49099 165.142 10.5183 164.33 14.3628C163.348 19.0198 164.949 22.2986 168.455 22.2986C170.64 22.2986 172.72 20.814 173.673 18.6813L173.421 19.9048L173 21.8779L176.613 21.8488L176.695 21.4571C175.181 21.2879 174.761 20.8381 175.012 19.663L177.691 6.96871H177.696ZM173.837 17.8399C172.996 19.721 171.201 21.2637 169.378 21.2637C166.433 21.2637 165.171 18.3186 166.012 14.3338C166.796 10.6295 169.04 8.27441 171.651 8.27441C174.437 8.27441 175.365 10.4844 174.998 12.4962L174.867 13.1055L173.842 17.8399H173.837Z" fill="#072723"/>
</g>
<defs>
<clipPath id="clip0_975_1209">
<rect width="178.832" height="28" fill="white"/>
</clipPath>
</defs>
</svg>
