<?xml version="1.0" encoding="UTF-8"?><svg id="uuid-bee9c36c-e362-4a8c-ada9-bcc569caccbb" xmlns="http://www.w3.org/2000/svg" xmlns:xlink="http://www.w3.org/1999/xlink" viewBox="0 0 1254.36 330"><defs><linearGradient id="uuid-6d94a336-e0be-4af6-b770-b5e91fc5c7ed" x1="166.24" y1="326.56" x2="162.04" y2="245.24" gradientTransform="translate(0 330.01) scale(1 -1)" gradientUnits="userSpaceOnUse"><stop offset="0" stop-color="#ffc700"/><stop offset="1" stop-color="#ff8a00"/></linearGradient><linearGradient id="uuid-5cb90efe-b263-48bc-ad7d-5dfddfe231b5" x1="954.34" y1="243.21" x2="932.97" y2="69.17" gradientTransform="translate(0 330.01) scale(1 -1)" gradientUnits="userSpaceOnUse"><stop offset="0" stop-color="#ffc700"/><stop offset="1" stop-color="#ff8a00"/></linearGradient><linearGradient id="uuid-28bf1321-c704-4f31-98b3-cdab4d10b51f" x1="1043.63" y1="232.25" x2="1022.26" y2="58.21" gradientTransform="translate(0 330.01) scale(1 -1)" gradientUnits="userSpaceOnUse"><stop offset="0" stop-color="#ffc700"/><stop offset="1" stop-color="#ff8a00"/></linearGradient><linearGradient id="uuid-3070f283-095b-4dcb-854d-2f14bd35e782" x1="1133.65" y1="221.2" x2="1112.28" y2="47.16" gradientTransform="translate(0 330.01) scale(1 -1)" gradientUnits="userSpaceOnUse"><stop offset="0" stop-color="#ffc700"/><stop offset="1" stop-color="#ff8a00"/></linearGradient><linearGradient id="uuid-f9117b83-3147-48dc-887b-21a3bc87b7fe" x1="1224.62" y1="210.03" x2="1203.25" y2="35.99" gradientTransform="translate(0 330.01) scale(1 -1)" gradientUnits="userSpaceOnUse"><stop offset="0" stop-color="#ffc700"/><stop offset="1" stop-color="#ff8a00"/></linearGradient></defs><path d="M0,113.03C.23,48.58,52.53,0,117,0s116.79,48.59,117,113.06v.38l-2.47,117.89-95.04,98.68V168.12l55.59-12.99,16.3-36.2-91.14,19.25h-.36L26.13,118.93l15.43,36.18,54.67,12.99v161.87L2.07,231.3,0,113.44v-.41Z"/><path d="M154.01,5.58l-14.7,42.49h21.04l-18.49,43.26,47.16-52.13h-21.48l10.94-22.81c-7.64-4.49-15.84-8.14-24.47-10.82Z" style="fill:url(#uuid-6d94a336-e0be-4af6-b770-b5e91fc5c7ed);"/><path d="M352.86,221.04c-6.66,0-12.13-2.05-16.4-6.15-4.27-4.1-6.41-10.25-6.41-18.45v-32.54c0-1.71-.85-2.56-2.56-2.56h-4.61c-2.22,0-4.1-.68-5.64-2.05-1.54-1.54-2.31-3.42-2.31-5.64,0-2.39,.77-4.36,2.31-5.89,1.54-1.54,3.42-2.31,5.64-2.31h4.61c1.71,0,2.56-.85,2.56-2.56v-21.53c0-2.39,.77-4.27,2.31-5.64,1.71-1.54,3.76-2.31,6.15-2.31,2.56,0,4.61,.77,6.15,2.31,1.71,1.37,2.56,3.25,2.56,5.64v21.53c0,1.71,.85,2.56,2.56,2.56h13.84c2.05,0,3.84,.77,5.38,2.31,1.54,1.54,2.31,3.5,2.31,5.89,0,2.22-.77,4.1-2.31,5.64-1.37,1.37-3.25,2.05-5.64,2.05h-13.58c-1.71,0-2.56,.85-2.56,2.56v30.24c0,7.17,2.9,10.76,8.71,10.76,1.71,0,3.5-.26,5.38-.77,1.88-.51,3.16-.77,3.84-.77,2.39,0,4.19,.77,5.38,2.31,1.37,1.54,2.05,3.33,2.05,5.38,0,1.54-.43,3.07-1.28,4.61-.85,1.37-2.22,2.39-4.1,3.08-1.88,.68-4.27,1.2-7.18,1.54-2.73,.51-5.12,.77-7.17,.77Z"/><path d="M394.18,221.04c-2.22,0-4.27-.68-6.15-2.05-1.71-1.37-2.56-3.33-2.56-5.89V115.72c0-2.9,.85-5.04,2.56-6.41,1.88-1.54,3.93-2.31,6.15-2.31s4.18,.77,5.89,2.31c1.88,1.37,2.82,3.5,2.82,6.41v36.64c2.73-2.9,6.32-5.21,10.76-6.92,4.61-1.71,8.88-2.56,12.81-2.56,8.88,0,16.4,3.07,22.55,9.22,6.32,6.15,9.48,15.2,9.48,27.16v33.82c0,2.56-.94,4.53-2.82,5.89s-3.84,2.05-5.89,2.05c-2.22,0-4.27-.68-6.15-2.05-1.71-1.37-2.56-3.33-2.56-5.89v-32.29c0-7.52-1.71-13.07-5.12-16.66-3.24-3.59-7.6-5.38-13.07-5.38-7.35,0-12.56,2.31-15.63,6.92-2.9,4.44-4.36,9.4-4.36,14.86v32.54c0,2.56-.94,4.53-2.82,5.89-1.71,1.37-3.67,2.05-5.89,2.05Z"/><path d="M530.85,151.34c0-2.39,.77-4.36,2.31-5.89,1.71-1.71,3.84-2.56,6.41-2.56,2.39,0,4.44,.85,6.15,2.56,1.71,1.54,2.56,3.5,2.56,5.89v36.13c0,7.69-1.71,14.01-5.12,18.96-3.42,4.95-7.86,8.63-13.33,11.02-5.47,2.39-11.28,3.59-17.42,3.59s-11.96-1.2-17.43-3.59c-5.47-2.39-9.91-6.06-13.32-11.02-3.42-4.96-5.12-11.28-5.12-18.96v-36.13c0-2.39,.77-4.36,2.31-5.89,1.71-1.71,3.84-2.56,6.41-2.56,2.39,0,4.44,.85,6.15,2.56,1.71,1.54,2.56,3.5,2.56,5.89v36.13c0,6.32,1.88,10.85,5.64,13.58,3.76,2.73,8.03,4.1,12.81,4.1s9.22-1.37,12.81-4.1c3.76-2.73,5.64-7.26,5.64-13.58v-36.13Z"/><path d="M631.72,221.04c-2.22,0-4.27-.68-6.15-2.05-1.71-1.37-2.56-3.33-2.56-5.89v-32.29c0-7.52-1.71-13.07-5.12-16.66-3.25-3.59-7.6-5.38-13.07-5.38-7,0-12.13,2.31-15.38,6.92-3.08,4.44-4.61,9.4-4.61,14.86v32.54c0,2.56-.94,4.53-2.82,5.89-1.71,1.37-3.67,2.05-5.89,2.05s-4.27-.68-6.15-2.05c-1.71-1.37-2.56-3.33-2.56-5.89v-60.22c0-2.9,.85-5.04,2.56-6.41,1.88-1.54,3.93-2.31,6.15-2.31s4.19,.77,5.89,2.31c1.88,1.37,2.82,3.5,2.82,6.41,2.9-2.9,6.66-5.29,11.28-7.18,4.61-1.88,8.97-2.82,13.07-2.82,9.57,0,17.17,3.07,22.81,9.22,5.64,6.15,8.46,15.2,8.46,27.16v33.82c0,2.56-.94,4.53-2.82,5.89-1.88,1.37-3.84,2.05-5.89,2.05Z"/><path d="M692.8,221.04c-7.35,0-13.92-1.71-19.73-5.12-5.81-3.42-10.34-8.12-13.58-14.09-3.25-6.15-4.87-12.98-4.87-20.5s1.62-13.92,4.87-19.73c3.25-5.81,7.77-10.34,13.58-13.58,5.81-3.42,12.39-5.12,19.73-5.12,4.78,0,9.05,.77,12.81,2.31,3.76,1.54,7,3.67,9.74,6.41v-35.88c0-2.9,.85-5.04,2.56-6.41,1.88-1.54,3.93-2.31,6.15-2.31s4.18,.77,5.89,2.31c1.88,1.37,2.82,3.5,2.82,6.41v97.38c0,2.56-.94,4.53-2.82,5.89-1.71,1.37-3.67,2.05-5.89,2.05s-4.27-.68-6.15-2.05c-1.71-1.37-2.56-3.33-2.56-5.89v-1.03c-2.73,2.73-5.98,4.87-9.74,6.41-3.76,1.71-8.03,2.56-12.81,2.56Zm1.54-15.89c6.49,0,11.62-2.14,15.38-6.41,3.76-4.44,5.64-10.25,5.64-17.43s-1.88-12.3-5.64-16.4c-3.76-4.1-8.88-6.15-15.38-6.15s-12.04,2.05-16.14,6.15c-4.1,4.1-6.15,9.57-6.15,16.4,0,7.18,2.05,12.98,6.15,17.43,4.1,4.27,9.48,6.41,16.14,6.41Z"/><path d="M787.7,221.04c-12.81,0-22.81-3.67-29.98-11.02-7.17-7.35-10.76-17.25-10.76-29.73,0-10.93,3.59-19.9,10.76-26.91,7.35-7,16.74-10.51,28.19-10.51s19.99,3.24,26.65,9.74c6.66,6.32,9.99,14.18,9.99,23.58,0,3.76-1.02,6.58-3.08,8.46-1.88,1.88-4.36,2.82-7.43,2.82h-44.59c-1.71,0-2.31,.94-1.79,2.82,1.37,4.78,4.1,8.54,8.2,11.27,4.27,2.56,9.05,3.84,14.35,3.84,3.93,0,7.69-.51,11.28-1.54,3.76-1.02,7-2.56,9.74-4.61,.85-.68,1.97-1.03,3.33-1.03,1.88,0,3.59,.85,5.12,2.56,1.54,1.54,2.31,3.42,2.31,5.64,0,1.02-.17,2.05-.51,3.07-.34,1.02-1.11,2.05-2.31,3.07-4.44,3.25-9.23,5.47-14.35,6.66-4.95,1.2-9.99,1.79-15.12,1.79Zm14.86-46.89c1.03,0,1.54-.51,1.54-1.54,0-3.93-1.79-7.35-5.38-10.25-3.42-2.9-7.69-4.36-12.81-4.36-4.44,0-8.71,1.2-12.81,3.59-3.93,2.39-6.32,5.55-7.17,9.48v.26c-.17,.68-.26,1.28-.26,1.79,.17,.51,.94,.77,2.31,.77l34.59,.26Z"/><path d="M855.34,180.55v32.54c0,2.56-.94,4.53-2.82,5.89-1.71,1.37-3.67,2.05-5.89,2.05s-4.27-.68-6.15-2.05c-1.71-1.37-2.56-3.33-2.56-5.89v-60.22c0-2.9,.85-5.04,2.56-6.41,1.88-1.54,3.93-2.31,6.15-2.31s4.19,.77,5.89,2.31c1.88,1.37,2.82,3.5,2.82,6.41v1.02c2.39-3.24,5.47-5.89,9.22-7.94,3.93-2.05,8.03-3.07,12.3-3.07,2.05,0,4.1,.26,6.15,.77,2.05,.51,3.59,1.54,4.61,3.07,1.02,1.54,1.54,3.25,1.54,5.12,0,2.22-.77,4.27-2.31,6.15-1.37,1.71-3.42,2.56-6.15,2.56-1.2,0-2.48-.17-3.84-.51-1.2-.34-2.73-.51-4.61-.51-4.96,0-9.06,1.88-12.3,5.64-3.08,3.76-4.61,8.88-4.61,15.38Z"/><path d="M917.02,221.04c-2.22,0-4.27-.68-6.15-2.05-1.71-1.37-2.56-3.33-2.56-5.89V115.72c0-2.9,.85-5.04,2.56-6.41,1.88-1.54,3.93-2.31,6.15-2.31s4.18,.77,5.89,2.31c1.88,1.37,2.82,3.5,2.82,6.41v36.64c2.73-2.9,6.32-5.21,10.76-6.92,4.61-1.71,8.88-2.56,12.81-2.56,8.88,0,16.4,3.07,22.55,9.22,6.32,6.15,9.48,15.2,9.48,27.16v33.82c0,2.56-.94,4.53-2.82,5.89-1.88,1.37-3.84,2.05-5.89,2.05-2.22,0-4.27-.68-6.15-2.05-1.71-1.37-2.56-3.33-2.56-5.89v-32.29c0-7.52-1.71-13.07-5.12-16.66-3.25-3.59-7.6-5.38-13.07-5.38-7.35,0-12.56,2.31-15.63,6.92-2.9,4.44-4.36,9.4-4.36,14.86v32.54c0,2.56-.94,4.53-2.82,5.89-1.71,1.37-3.67,2.05-5.89,2.05Z" style="fill:url(#uuid-5cb90efe-b263-48bc-ad7d-5dfddfe231b5);"/><path d="M1036.27,221.04c-12.82,0-22.81-3.67-29.99-11.02-7.17-7.35-10.76-17.25-10.76-29.73,0-10.93,3.59-19.9,10.76-26.91,7.35-7,16.75-10.51,28.19-10.51s19.99,3.24,26.65,9.74c6.67,6.32,10,14.18,10,23.58,0,3.76-1.03,6.58-3.08,8.46-1.88,1.88-4.35,2.82-7.43,2.82h-44.59c-1.71,0-2.3,.94-1.79,2.82,1.36,4.78,4.1,8.54,8.2,11.27,4.27,2.56,9.05,3.84,14.35,3.84,3.93,0,7.69-.51,11.27-1.54,3.76-1.02,7.01-2.56,9.74-4.61,.86-.68,1.97-1.03,3.33-1.03,1.88,0,3.59,.85,5.13,2.56,1.54,1.54,2.3,3.42,2.3,5.64,0,1.02-.17,2.05-.51,3.07-.34,1.02-1.11,2.05-2.3,3.07-4.45,3.25-9.23,5.47-14.36,6.66-4.95,1.2-9.99,1.79-15.11,1.79Zm14.86-46.89c1.02,0,1.54-.51,1.54-1.54,0-3.93-1.8-7.35-5.39-10.25-3.41-2.9-7.68-4.36-12.81-4.36-4.44,0-8.71,1.2-12.81,3.59-3.93,2.39-6.32,5.55-7.18,9.48v.26c-.17,.68-.25,1.28-.25,1.79,.17,.51,.94,.77,2.3,.77l34.6,.26Z" style="fill:url(#uuid-28bf1321-c704-4f31-98b3-cdab4d10b51f);"/><path d="M1122.04,221.04c-7.34,0-13.92-1.71-19.73-5.12-5.81-3.42-10.34-8.12-13.58-14.09-3.25-6.15-4.87-12.98-4.87-20.5s1.62-13.92,4.87-19.73c3.24-5.81,7.77-10.34,13.58-13.58,5.81-3.42,12.39-5.12,19.73-5.12,4.78,0,9.06,.85,12.81,2.56,3.76,1.54,7.01,3.59,9.74,6.15,.34-2.39,1.37-4.18,3.08-5.38,1.7-1.37,3.58-2.05,5.63-2.05,2.22,0,4.19,.77,5.9,2.31,1.88,1.37,2.82,3.5,2.82,6.41v60.22c0,2.56-.94,4.53-2.82,5.89-1.71,1.37-3.68,2.05-5.9,2.05s-4.27-.68-6.15-2.05c-1.7-1.37-2.56-3.33-2.56-5.89v-1.03c-2.73,2.73-5.98,4.87-9.74,6.41-3.75,1.71-8.03,2.56-12.81,2.56Zm1.54-15.89c6.49,0,11.62-2.14,15.37-6.41,3.76-4.44,5.64-10.25,5.64-17.43s-1.88-12.3-5.64-16.4c-3.75-4.1-8.88-6.15-15.37-6.15s-12.05,2.05-16.15,6.15c-4.1,4.1-6.15,9.57-6.15,16.4,0,7.18,2.05,12.98,6.15,17.43,4.1,4.27,9.49,6.41,16.15,6.41Z" style="fill:url(#uuid-3070f283-095b-4dcb-854d-2f14bd35e782);"/><path d="M1214.38,221.04c-7.34,0-13.92-1.71-19.73-5.12-5.81-3.42-10.33-8.12-13.58-14.09-3.25-6.15-4.87-12.98-4.87-20.5s1.62-13.92,4.87-19.73c3.25-5.81,7.77-10.34,13.58-13.58,5.81-3.42,12.39-5.12,19.73-5.12,4.79,0,9.06,.77,12.82,2.31,3.75,1.54,7,3.67,9.73,6.41v-35.88c0-2.9,.86-5.04,2.57-6.41,1.87-1.54,3.92-2.31,6.15-2.31s4.18,.77,5.89,2.31c1.88,1.37,2.82,3.5,2.82,6.41v97.38c0,2.56-.94,4.53-2.82,5.89-1.71,1.37-3.67,2.05-5.89,2.05s-4.28-.68-6.15-2.05c-1.71-1.37-2.57-3.33-2.57-5.89v-1.03c-2.73,2.73-5.98,4.87-9.73,6.41-3.76,1.71-8.03,2.56-12.82,2.56Zm1.54-15.89c6.49,0,11.62-2.14,15.38-6.41,3.75-4.44,5.63-10.25,5.63-17.43s-1.88-12.3-5.63-16.4c-3.76-4.1-8.89-6.15-15.38-6.15s-12.04,2.05-16.14,6.15c-4.1,4.1-6.15,9.57-6.15,16.4,0,7.18,2.05,12.98,6.15,17.43,4.1,4.27,9.48,6.41,16.14,6.41Z" style="fill:url(#uuid-f9117b83-3147-48dc-887b-21a3bc87b7fe);"/></svg>